<svg xmlns="http://www.w3.org/2000/svg" version="1.1" xmlns:xlink="http://www.w3.org/1999/xlink" xmlns:svgjs="http://svgjs.dev/svgjs" width="2000" height="292" viewBox="0 0 2000 292"><g transform="matrix(1,0,0,1,-1.2121212121212466,0.7568375910507825)"><svg viewBox="0 0 396 58" data-background-color="#ffffff" preserveAspectRatio="xMidYMid meet" height="292" width="2000" xmlns="http://www.w3.org/2000/svg" xmlns:xlink="http://www.w3.org/1999/xlink"><g id="tight-bounds" transform="matrix(1,0,0,1,0.2400000000000091,-0.15033075438680044)"><svg viewBox="0 0 395.52 58.30066150877359" height="58.30066150877359" width="395.52"><g><svg viewBox="0 0 508.7096938408366 74.98511242629061" height="58.30066150877359" width="395.52"><g><rect width="6.728591863919316" height="74.98511242629061" x="88.84698714990341" y="0" fill="#ffffff" opacity="1" stroke-width="0" stroke="transparent" fill-opacity="1" class="rect-qz-0" data-fill-palette-color="primary" rx="1%" id="qz-0" data-palette-color="#111111"></rect></g><g transform="matrix(1,0,0,1,113.18969384083665,0.18653013041365085)"><svg viewBox="0 0 395.52 74.61205216546331" height="74.61205216546331" width="395.52"><g id="textblocktransform"><svg viewBox="0 0 395.52 74.61205216546331" height="74.61205216546331" width="395.52" id="textblock"><g><svg viewBox="0 0 395.52 74.61205216546331" height="74.61205216546331" width="395.52"><g transform="matrix(1,0,0,1,0,0)"><svg width="395.52" viewBox="1.95 -28.98 206.68 38.990850697217" height="74.61205216546331" data-palette-color="#111111"><path d="M26.49-28.98Q27.32-28.98 27.67-28.6 28.03-28.22 28.03-27.32L28.03-27.32Q28.03-26.42 27.67-26.04 27.32-25.66 26.49-25.66L26.49-25.66 24.73-25.66 24.73-3.32 26.49-3.32Q27.32-3.32 27.67-2.94 28.03-2.56 28.03-1.66L28.03-1.66Q28.03-0.76 27.67-0.38 27.32 0 26.49 0L26.49 0 18.82 0Q17.99 0 17.64-0.38 17.29-0.76 17.29-1.66L17.29-1.66Q17.29-2.56 17.64-2.94 17.99-3.32 18.82-3.32L18.82-3.32 21.07-3.32 21.07-13.28 8.91-13.28 8.91-3.32 11.16-3.32Q11.99-3.32 12.34-2.94 12.7-2.56 12.7-1.66L12.7-1.66Q12.7-0.76 12.34-0.38 11.99 0 11.16 0L11.16 0 3.49 0Q2.66 0 2.31-0.38 1.95-0.76 1.95-1.66L1.95-1.66Q1.95-2.56 2.31-2.94 2.66-3.32 3.49-3.32L3.49-3.32 5.25-3.32 5.25-25.66 3.49-25.66Q2.66-25.66 2.31-26.04 1.95-26.42 1.95-27.32L1.95-27.32Q1.95-28.22 2.31-28.6 2.66-28.98 3.49-28.98L3.49-28.98 11.16-28.98Q11.99-28.98 12.34-28.6 12.7-28.22 12.7-27.32L12.7-27.32Q12.7-26.42 12.34-26.04 11.99-25.66 11.16-25.66L11.16-25.66 8.91-25.66 8.91-16.6 21.07-16.6 21.07-25.66 18.82-25.66Q17.99-25.66 17.64-26.04 17.29-26.42 17.29-27.32L17.29-27.32Q17.29-28.22 17.64-28.6 17.99-28.98 18.82-28.98L18.82-28.98 26.49-28.98ZM45.07-23.1Q49.66-23.1 51.95-21.04 54.25-18.99 54.25-14.97L54.25-14.97 54.25-5.25Q54.25-3.32 55.86-3.32L55.86-3.32 56.71-3.32Q57.54-3.32 57.9-2.94 58.25-2.56 58.25-1.66L58.25-1.66Q58.25-0.76 57.9-0.38 57.54 0 56.71 0L56.71 0 55.15 0Q53.56 0 52.43-0.79 51.29-1.59 50.95-3.13L50.95-3.13Q48.95-1.37 46.62-0.42 44.28 0.54 41.67 0.54L41.67 0.54Q39.21 0.54 37.31-0.31 35.42-1.15 34.35-2.76 33.27-4.37 33.27-6.59L33.27-6.59Q33.27-10.45 36.03-12.29 38.79-14.14 43.16-14.14L43.16-14.14Q47.04-14.14 50.58-12.89L50.58-12.89 50.58-14.97Q50.58-17.33 49.25-18.44 47.92-19.56 44.97-19.56L44.97-19.56Q43.14-19.56 41.16-19.04 39.18-18.53 37.4-17.63L37.4-17.63Q36.98-17.41 36.64-17.41L36.64-17.41Q35.84-17.41 35.3-18.58L35.3-18.58Q35.03-19.17 35.03-19.56L35.03-19.56Q35.03-20.41 35.94-20.87L35.94-20.87Q37.99-21.95 40.34-22.52 42.7-23.1 45.07-23.1L45.07-23.1ZM43.19-10.69Q40.38-10.69 38.75-9.73 37.13-8.76 37.13-6.67L37.13-6.67Q37.13-4.88 38.36-3.89 39.6-2.91 41.82-2.91L41.82-2.91Q46.68-2.91 50.58-6.93L50.58-6.93 50.58-9.59Q48.92-10.13 47.02-10.41 45.11-10.69 43.19-10.69L43.19-10.69ZM82.42-23.1Q84.32-23.1 85.98-22.12L85.98-22.12Q86.96-21.53 86.96-20.61L86.96-20.61Q86.96-20.17 86.74-19.58L86.74-19.58Q86.23-18.19 85.32-18.19L85.32-18.19Q84.96-18.19 84.64-18.38L84.64-18.38Q83.44-19.04 82.08-19.04L82.08-19.04Q79.88-19.04 77.66-17.52 75.43-15.99 74.01-13.45 72.58-10.91 72.58-8.06L72.58-8.06 72.58-3.32 80.81-3.32Q81.64-3.32 81.99-2.94 82.34-2.56 82.34-1.66L82.34-1.66Q82.34-0.76 81.99-0.38 81.64 0 80.81 0L80.81 0 65.08 0Q64.25 0 63.9-0.38 63.54-0.76 63.54-1.66L63.54-1.66Q63.54-2.56 63.9-2.94 64.25-3.32 65.08-3.32L65.08-3.32 68.92-3.32 68.92-19.24 65.82-19.24Q64.99-19.24 64.63-19.62 64.28-20 64.28-20.9L64.28-20.9Q64.28-21.8 64.63-22.18 64.99-22.56 65.82-22.56L65.82-22.56 70.8-22.56Q71.63-22.56 71.98-22.18 72.33-21.8 72.33-20.9L72.33-20.9 72.33-15.97Q73.51-18.12 75.17-19.73 76.83-21.34 78.71-22.22 80.59-23.1 82.42-23.1L82.42-23.1ZM119.01-3.32Q119.84-3.32 120.2-2.94 120.55-2.56 120.55-1.66L120.55-1.66Q120.55-0.76 120.2-0.38 119.84 0 119.01 0L119.01 0 115.37 0Q114.54 0 114.19-0.38 113.84-0.76 113.84-1.66L113.84-1.66 113.84-16.11Q113.84-17.8 113.29-18.64 112.74-19.48 111.52-19.48L111.52-19.48Q110.37-19.48 109.39-18.42 108.42-17.36 107.84-15.47 107.27-13.57 107.27-11.16L107.27-11.16 107.27-3.32 108.66-3.32Q109.49-3.32 109.84-2.94 110.2-2.56 110.2-1.66L110.2-1.66Q110.2-0.76 109.84-0.38 109.49 0 108.66 0L108.66 0 105.14 0Q104.31 0 103.96-0.38 103.61-0.76 103.61-1.66L103.61-1.66 103.61-16.11Q103.61-17.8 103.06-18.64 102.51-19.48 101.29-19.48L101.29-19.48Q100.14-19.48 99.16-18.42 98.19-17.36 97.61-15.47 97.04-13.57 97.04-11.16L97.04-11.16 97.04-3.32 98.31-3.32Q99.14-3.32 99.49-2.94 99.85-2.56 99.85-1.66L99.85-1.66Q99.85-0.76 99.49-0.38 99.14 0 98.31 0L98.31 0 91.37 0Q90.54 0 90.19-0.38 89.84-0.76 89.84-1.66L89.84-1.66Q89.84-2.56 90.19-2.94 90.54-3.32 91.37-3.32L91.37-3.32 93.38-3.32 93.38-19.24 91.37-19.24Q90.54-19.24 90.19-19.62 89.84-20 89.84-20.9L89.84-20.9Q89.84-21.8 90.19-22.18 90.54-22.56 91.37-22.56L91.37-22.56 95.01-22.56Q95.84-22.56 96.2-22.18 96.55-21.8 96.55-20.9L96.55-20.9 96.55-18.48Q97.6-20.78 99.06-21.94 100.53-23.1 102.24-23.1L102.24-23.1Q103.9-23.1 105.14-21.97 106.39-20.85 106.83-18.68L106.83-18.68Q109-23.1 112.44-23.1L112.44-23.1Q113.88-23.1 115.02-22.38 116.15-21.66 116.83-20.18 117.5-18.7 117.5-16.55L117.5-16.55 117.5-3.32 119.01-3.32ZM134.9-23.1Q138.25-23.1 140.93-21.58 143.62-20.07 145.14-17.37 146.67-14.67 146.67-11.28L146.67-11.28Q146.67-7.89 145.14-5.19 143.62-2.49 140.93-0.98 138.25 0.54 134.9 0.54L134.9 0.54Q131.56 0.54 128.87-0.98 126.19-2.49 124.66-5.19 123.13-7.89 123.13-11.28L123.13-11.28Q123.13-14.67 124.66-17.37 126.19-20.07 128.87-21.58 131.56-23.1 134.9-23.1L134.9-23.1ZM134.9-19.48Q132.53-19.48 130.74-18.44 128.95-17.41 127.97-15.54 126.99-13.67 126.99-11.28L126.99-11.28Q126.99-8.89 127.97-7.02 128.95-5.15 130.74-4.11 132.53-3.08 134.9-3.08L134.9-3.08Q137.27-3.08 139.06-4.11 140.86-5.15 141.84-7.02 142.81-8.89 142.81-11.28L142.81-11.28Q142.81-13.67 141.84-15.54 140.86-17.41 139.06-18.44 137.27-19.48 134.9-19.48L134.9-19.48ZM167.64-23.1Q169.86-23.1 171.5-22.13 173.13-21.17 174.01-19.36 174.89-17.55 174.89-15.14L174.89-15.14 174.89-3.32 176.89-3.32Q177.72-3.32 178.08-2.94 178.43-2.56 178.43-1.66L178.43-1.66Q178.43-0.76 178.08-0.38 177.72 0 176.89 0L176.89 0 168.98 0Q168.15 0 167.8-0.38 167.44-0.76 167.44-1.66L167.44-1.66Q167.44-2.56 167.8-2.94 168.15-3.32 168.98-3.32L168.98-3.32 171.23-3.32 171.23-14.77Q171.23-16.94 170.23-18.21 169.23-19.48 167.27-19.48L167.27-19.48Q165.2-19.48 163.4-18.29 161.61-17.09 160.53-14.99 159.46-12.89 159.46-10.3L159.46-10.3 159.46-3.32 161.71-3.32Q162.54-3.32 162.89-2.94 163.24-2.56 163.24-1.66L163.24-1.66Q163.24-0.76 162.89-0.38 162.54 0 161.71 0L161.71 0 153.8 0Q152.97 0 152.61-0.38 152.26-0.76 152.26-1.66L152.26-1.66Q152.26-2.56 152.61-2.94 152.97-3.32 153.8-3.32L153.8-3.32 155.8-3.32 155.8-19.24 153.31-19.24Q152.48-19.24 152.12-19.62 151.77-20 151.77-20.9L151.77-20.9Q151.77-21.8 152.12-22.18 152.48-22.56 153.31-22.56L153.31-22.56 157.68-22.56Q158.51-22.56 158.86-22.18 159.22-21.8 159.22-20.9L159.22-20.9 159.22-17.97Q160.83-20.46 162.99-21.78 165.15-23.1 167.64-23.1L167.64-23.1ZM207.09-22.56Q207.92-22.56 208.27-22.18 208.63-21.8 208.63-20.9L208.63-20.9Q208.63-20 208.27-19.62 207.92-19.24 207.09-19.24L207.09-19.24 205.58-19.24 195.59 1.22Q194 4.47 192.49 6.32 190.98 8.18 189.08 9.05 187.19 9.91 184.48 10.01L184.48 10.01Q183.63 10.03 183.16 9.58 182.7 9.13 182.7 7.98L182.7 7.98Q182.7 6.4 183.99 6.32L183.99 6.32Q186.34 6.2 187.72 5.54 189.1 4.88 190.26 3.28 191.42 1.68 193.1-1.71L193.1-1.71 184.16-19.24 182.63-19.24Q181.8-19.24 181.44-19.62 181.09-20 181.09-20.9L181.09-20.9Q181.09-21.8 181.44-22.18 181.8-22.56 182.63-22.56L182.63-22.56 191.27-22.56Q192.1-22.56 192.45-22.18 192.81-21.8 192.81-20.9L192.81-20.9Q192.81-20 192.45-19.62 192.1-19.24 191.27-19.24L191.27-19.24 188.14-19.24 195.03-5.52 201.6-19.24 199.42-19.24Q198.59-19.24 198.24-19.62 197.89-20 197.89-20.9L197.89-20.9Q197.89-21.8 198.24-22.18 198.59-22.56 199.42-22.56L199.42-22.56 207.09-22.56Z" opacity="1" transform="matrix(1,0,0,1,0,0)" fill="#ffffff" class="wordmark-text-0" data-fill-palette-color="primary" id="text-0"></path></svg></g></svg></g></svg></g></svg></g><g transform="matrix(1,0,0,1,0,0.18653013041365085)"><svg viewBox="0 0 71.23287232288949 74.61205216546331" height="74.61205216546331" width="71.23287232288949"><g><svg version="1.0" xmlns="http://www.w3.org/2000/svg" xmlns:xlink="http://www.w3.org/1999/xlink" x="0" y="0" viewBox="0 0 95.471 100" enable-background="new 0 0 95.471 100" xml:space="preserve" width="71.23287232288949" height="74.61205216546331" class="icon-icon-0" data-fill-palette-color="accent" id="icon-0"><path d="M47.735 0c-0.083 2.825-1.738 13.412-19.799 30.934C10.554 47.797 2.439 49.824 0 50c2.439 0.178 10.554 2.204 27.936 19.066C45.997 86.589 47.652 97.177 47.735 100c0.083-2.823 1.739-13.411 19.798-30.934C84.917 52.204 93.031 50.178 95.471 50c-2.439-0.176-10.554-2.203-27.938-19.066C49.475 13.412 47.819 2.825 47.735 0z" fill="#ffffff" data-fill-palette-color="accent"></path></svg></g></svg></g></svg></g><defs></defs></svg><rect width="395.52" height="58.30066150877359" fill="none" stroke="none" visibility="hidden"></rect></g></svg></g></svg>